<?xml version="1.0" encoding="utf-8"?>
<svg xmlns="http://www.w3.org/2000/svg" viewBox="0 0 48 48" width="35" height="35">
  <path fill="#ef6c00" d="M33,39c0,1.657-4.253,3-9.5,3S14,40.657,14,39v-2h19V39z" />
  <ellipse cx="23.5" cy="37" fill="#ff9800" rx="9.5" ry="3" />
  <path fill="#ef6c00" d="M24,37h-1c-1.105,0-2-0.895-2-2v-5h5v5C26,36.105,25.105,37,24,37z" />
  <path fill="#d32f2f" d="M41.377,25.771c-1.638,0.704-1.597,1.533-3.688,2.204c-2.339,0.75-2.668-0.198-5.007,0.552c-2.311,0.741-2.016,1.677-4.267,2.423c-0.823,0.272-1.714,0.323-2.577,0.216c-4.925-0.613-4.265,0.743-7.181-0.192c-2.339-0.75-2.011-1.699-4.35-2.45c-2.338-0.75-2.666,0.199-5.004-0.551c-2.087-0.669-2.047-1.498-3.681-2.202c-0.392-0.169-0.46-2.381-0.46-2.381L6,11h35l0.838,12.39C41.838,23.39,41.77,25.602,41.377,25.771z" />
  <path fill="#c5cae9" d="M42,25.8c0.02,0.42-0.23,0.8-0.62,0.97c-1.64,0.71-1.6,1.53-3.69,2.21c-2.34,0.75-2.67-0.2-5.01,0.55c-2.31,0.74-2.01,1.67-4.27,2.42c-0.82,0.27-1.71,0.32-2.57,0.22c-4.93-0.62-4.27,0.74-7.18-0.2c-2.34-0.75-2.01-1.7-4.35-2.45s-2.67,0.2-5.01-0.55c-2.08-0.67-2.04-1.5-3.68-2.2C5.23,26.6,4.98,26.22,5,25.8l0.16-2.41c0.11,0.16,0.27,0.3,0.46,0.38c1.64,0.7,1.6,1.53,3.68,2.2c2.34,0.75,2.67-0.2,5.01,0.55s2.01,1.7,4.35,2.45c2.91,0.94,2.25-0.42,7.18,0.2c0.86,0.1,1.75,0.05,2.57-0.22c2.26-0.75,1.96-1.68,4.27-2.42c2.34-0.75,2.67,0.2,5.01-0.55c2.09-0.68,2.05-1.5,3.69-2.21c0.19-0.08,0.35-0.22,0.46-0.38L42,25.8z" />
  <ellipse cx="23.5" cy="11.263" fill="#ef5350" rx="17.5" ry="5.263" />
</svg>